<svg width="32" height="32" viewBox="0 0 32 32" fill="none" xmlns="http://www.w3.org/2000/svg">
  <path d="M16 4C10.4772 4 6 8.47715 6 14C6 16.7907 7.2372 19.3014 9.17808 21H22.8219C24.7628 19.3014 26 16.7907 26 14C26 8.47715 21.5228 4 16 4Z" fill="#3366FF"/>
  <path d="M10.5 22H21.5C21.7761 22 22 22.2239 22 22.5V24.5C22 25.8807 20.8807 27 19.5 27H12.5C11.1193 27 10 25.8807 10 24.5V22.5C10 22.2239 10.2239 22 10.5 22Z" fill="#3366FF"/>
  <path d="M23 2C23 1.44772 23.4477 1 24 1H27C27.5523 1 28 1.44772 28 2V5C28 5.55228 27.5523 6 27 6C26.4477 6 26 5.55228 26 5V3H24C23.4477 3 23 2.55228 23 2Z" fill="#FF6633"/>
  <path d="M28 2C28 1.44772 27.5523 1 27 1C26.4477 1 26 1.44772 26 2V4H24C23.4477 4 23 4.44772 23 5C23 5.55228 23.4477 6 24 6H27C27.5523 6 28 5.55228 28 5V2Z" fill="#FF6633"/>
</svg>